<?xml version="1.0" encoding="UTF-8" standalone="no"?>
<!-- Created with Inkscape (http://www.inkscape.org/) -->

<svg
   xmlns:dc="http://purl.org/dc/elements/1.1/"
   xmlns:cc="http://creativecommons.org/ns#"
   xmlns:rdf="http://www.w3.org/1999/02/22-rdf-syntax-ns#"
   xmlns:svg="http://www.w3.org/2000/svg"
   xmlns="http://www.w3.org/2000/svg"
   xmlns:sodipodi="http://sodipodi.sourceforge.net/DTD/sodipodi-0.dtd"
   xmlns:inkscape="http://www.inkscape.org/namespaces/inkscape"
   id="svg2"
   version="1.1"
   inkscape:version="0.48.3.1 r9886"
   width="1000"
   height="1006.4391"
   sodipodi:docname="logo.svg"
   inkscape:export-filename="/media/od/Informacion/.Documentos/b- Organizacion y Proyectos/LocXue, Software Engineering/Logo/logo.png"
   inkscape:export-xdpi="90"
   inkscape:export-ydpi="90">
  <metadata
     id="metadata8">
    <rdf:RDF>
      <cc:Work
         rdf:about="">
        <dc:format>image/svg+xml</dc:format>
        <dc:type
           rdf:resource="http://purl.org/dc/dcmitype/StillImage" />
        <dc:title />
      </cc:Work>
    </rdf:RDF>
  </metadata>
  <defs
     id="defs6">
    <clipPath
       clipPathUnits="userSpaceOnUse"
       id="clipPath3856">
      <path
         style="fill:#cccccc;stroke:#000000;stroke-width:1px;stroke-linecap:butt;stroke-linejoin:miter;stroke-opacity:1"
         d="m 448.15229,-34.792547 13.96956,-1.295563 75.11205,-1.257653 8.28474,-0.318644 11.15255,-43.016949 -69.46441,-69.783054 -83.1661,8.92204 -20.07458,63.091522 -20.39322,91.769492 13.38305,7.328813 51.62034,-24.2169487 z"
         id="path3858"
         inkscape:connector-curvature="0" />
    </clipPath>
  </defs>
  <sodipodi:namedview
     pagecolor="#ffffff"
     bordercolor="#666666"
     borderopacity="1"
     objecttolerance="10"
     gridtolerance="10"
     guidetolerance="10"
     inkscape:pageopacity="0"
     inkscape:pageshadow="2"
     inkscape:window-width="1317"
     inkscape:window-height="744"
     id="namedview4"
     showgrid="false"
     fit-margin-top="0"
     fit-margin-left="0"
     fit-margin-right="0"
     fit-margin-bottom="0"
     inkscape:zoom="0.4363039"
     inkscape:cx="1058.6285"
     inkscape:cy="675.5024"
     inkscape:window-x="49"
     inkscape:window-y="24"
     inkscape:window-maximized="1"
     inkscape:current-layer="g2996"
     inkscape:snap-page="true" />
  <g
     id="g3842"
     mask="none"
     clip-path="url(#clipPath3856)"
     transform="matrix(0.97066957,0,0,0.97066957,-348.17029,954.88127)" />
  <g
     id="g2996"
     transform="scale(5.4151209,5.4151209)">
    <path
       sodipodi:nodetypes="scccccssssssssssssssssssssssssssssssssssssccccsssscsssc"
       inkscape:connector-curvature="0"
       id="path3805"
       d="m 368.85085,14.463476 c 0,-0.99124 16.07002,-25.267636 18.65072,-28.174966 6.99806,-3.84236 15.76749,-22.25779 15.76749,-22.25779 l -13.98235,-1.09211 4.12888,-4.034079 c 2.17073,-1.252134 4.66974,-2.540594 6.84047,-2.480801 l 3.27434,0 c 2.40323,0 3.71728,-0.67601 4.93926,-2.54099 2.53063,-3.86223 8.92524,-7.04536 18.88119,-9.39874 17.23613,-4.07425 20.78438,-5.25739 31.4173,-10.47584 5.88433,-2.88792 11.57266,-5.52478 12.64074,-5.85968 24.12225,-7.56357 27.41514,-9.72372 26.03524,-17.07923 -1.00998,-5.38365 -10.9918,-15.21483 -20.48937,-20.18013 -4.08277,-2.13447 -7.60816,-4.67764 -7.86949,-5.67696 -0.26037,-0.99567 -1.65713,-2.06153 -3.10391,-2.36858 -4.92247,-1.04469 -7.13051,-2.37357 -7.13051,-4.29142 0,-2.08504 1.84195,-3.12843 5.52277,-3.12843 4.30609,0 3.61743,-1.89526 -1.66045,-4.56977 -4.61078,-2.33646 -5.96988,-2.57083 -11.78702,-2.03263 -14.71447,1.36138 -22.47371,0.73243 -23.5825,-0.0345 -0.64389,-0.44536 -1.65585,-1.16459 -2.04895,-2.73079 -0.66391,-2.64526 -0.56761,-2.76893 1.35498,-1.73999 3.02275,1.61773 6.60415,1.37016 14.59187,-1.00869 8.80616,-2.62259 16.02329,-2.16561 23.78442,1.50599 4.37791,2.07108 7.04738,2.61491 12.92137,2.63233 5.08331,0.0151 8.7067,0.61368 11.56186,1.91008 2.2871,1.03846 6.71486,2.41884 9.83947,3.06751 5.76631,1.19708 9.50218,3.76145 9.50218,6.52247 0,1.47695 -7.49922,6.86687 -11.17921,8.03486 -2.72954,0.86632 -2.28932,1.66642 3.15204,5.72877 9.00514,6.72296 16.02717,20.49625 16.02717,31.43631 0,4.2266 0.14199,4.46553 2.25,3.78607 14.51536,-4.6787 24.37099,-5.74419 27.17707,-2.9381 3.04187,3.04187 3.06194,6.47789 0.0712,12.19015 -3.37807,6.45204 -14.90504,19.06697 -19.86165,21.73629 -3.87813,2.0885 -4.06875,2.04351 -5.06353,-1.19522 -0.74097,-2.41239 0.5164,-3.90801 6.42692,-7.64468 3.61663,-2.28647 13.99938,-15.19574 13.99978,-17.40647 6.2e-4,-3.49378 -13.2728,1.97177 -26.09295,10.7442 -3.52376,2.4112 -7.98183,5.46168 -9.90683,6.77885 -2.54421,1.74086 -4.3706,2.2553 -6.68807,1.88382 -2.18387,-0.35007 -3.60132,-0.0106 -4.5,1.07774 -2.67994,3.24547 -14.8526,7.42173 -30.06193,10.31381 -8.26209,3.337289 -14.74989,1.68857 -14.74989,1.68857 l -7.49153,0.48077 -7.49154,0.48078 -8.77245,8.45667 c -7.59538,7.32197 -10.55934,9.36528 -22.08979,15.22842 -11.57066,5.88358 -14.64576,8.00757 -23.4457,16.19406 -9.79917,9.115956 -11.70911,10.496266 -11.70911,8.462056 z m 65.76166,-146.726826 c -0.95609,-0.25029 -2.75609,-0.25938 -4,-0.0202 -1.24391,0.23919 -0.46166,0.44398 1.73834,0.45508 2.2,0.0111 3.21775,-0.18461 2.26166,-0.4349 z"
       style="fill:#5599ff"
       transform="matrix(0.97066957,0,0,0.97066957,-348.17029,134.29933)" />
    <path
       sodipodi:nodetypes="sssssssscsssccccssscscssccsssssssssscscccssssssssssscssccssssssss"
       inkscape:connector-curvature="0"
       id="path3799"
       d="m 368.93898,14.29071 c 0,-0.57469 4.12233,-5.30608 9.16072,-10.51421 8.50309,-8.78956 10.14656,-9.97942 22.8936,-16.57488 7.55309,-3.90805 16.03077,-8.84475 18.83929,-10.97043 2.80852,-2.12569 5.1064,-3.29618 5.1064,-2.60109 0,3.09208 -7.85817,8.95147 -21.20264,15.80963 -12.61034,6.48086 -15.16682,8.25904 -23.83368,16.5777 -9.67073,9.2822 -10.96369,10.25788 -10.96369,8.27328 z m 81,-49.21209 -8.0411,0.46549 c -7.63646,0.442066 -8.18021,0.63212 -10.80541,3.77668 -4.30734,5.15951 -6.05807,3.35775 -1.96291,-2.02012 l 3.40009,-4.46508 8.45467,-0.5 c 17.92898,-2.056464 35.21531,-1.11473 51.26321,-11.59183 2.09471,-1.38273 4.56971,-2.43841 5.5,-2.34595 3.76254,0.37391 5.24583,-0.32366 13.99146,-6.57997 10.73372,-7.67851 22.32279,-13.48225 26.92178,-13.48225 1.94462,0 3.87716,4.606066 3.31381,3.858439 -1.5089,-2.00249 -7.96325,0.743642 -10.29121,1.989872 -0.4069,5e-6 -9.3896,3.842368 -21.14418,12.547799 -5.05336,3.742511 -7.83987,5.00094 -10.5,5.05382 -1.98011,0.0394 -4.72521,0.83091 -6.10021,1.759 -4.7373,3.19753 -12.00294,5.88026 -21.23907,7.84219 -5.09351,1.08196 -11.51093,2.47709 -11.51093,2.47709 z m -57.55026,-2.665569 c 0,-1.63107 11.7766,-1.898461 12.32649,-0.248791 0.23119,0.69359 -0.66321,1.17133 -2.19289,1.17133 -1.48567,0 -10.1336,-0.155999 -10.1336,-0.922539 z m 129.55027,-3.045071 c 0,-0.53218 2.482,-2.84153 5.51556,-5.13189 5.34441,-4.03507 16.64563,-17.07486 18.76386,-21.6505 1.15018,-2.48452 2.72058,-3.00693 2.72058,-0.90503 0,2.00016 -7.34124,12.98505 -12.20245,18.25884 -6.48608,7.03657 -14.79755,12.3324 -14.79755,9.42858 z m -6.92971,-32.22337 c 0.0387,-0.71996 0.45702,-2.20902 0.92971,-3.30902 0.7674,-1.78583 0.86696,-1.71184 0.92971,0.69099 0.0387,1.48004 -0.37971,2.9691 -0.92971,3.30901 -0.55,0.33992 -0.96837,0.029 -0.92971,-0.69098 z m -25.13266,-27.41454 c -2.4407,-2.50998 -7.66093,-6.3447 -11.60052,-8.52161 -6.29695,-3.47952 -10.73405,-6.87287 -8.98689,-6.87287 4.04113,0 23.56521,13.73127 25.05897,17.62395 1.13693,2.9628 0.0508,2.42127 -4.47156,-2.22947 z m 1.54638,-13.42035 c -0.34871,-0.56423 0.80495,-1.5275 2.5637,-2.1406 1.75875,-0.61311 5.59543,-2.39422 8.52593,-3.95803 3.68836,-1.96822 5.54423,-2.49379 6.03007,-1.70769 0.82122,1.32877 -1.29438,3.06334 -7.82048,6.41196 -5.02541,2.57861 -8.26692,3.06466 -9.29922,1.39436 z m -30.04288,-5.44232 c -1.91526,-1.44863 -1.91448,-1.46844 0.0589,-1.48635 3.02982,-0.0275 6.5,1.07826 6.5,2.07118 0,1.41473 -4.43845,1.01897 -6.55887,-0.58483 z m 2.43242,-10.03905 c -5.13448,-2.78998 -10.44458,-3.34221 -18.09976,-1.88229 -9.40477,1.79358 -15.90121,1.7626 -18.33266,-0.0874 -0.97696,-0.74333 -2.1428,-2.10951 -1.59932,-2.19388 0.44581,-0.0692 2.30034,1.05394 4.15819,1.2909 2.73277,0.34855 6.91298,-0.0532 10.64434,-1.02307 10.9265,-2.83998 20.8183,-1.73427 26.10401,2.91793 3.11066,2.73783 1.42152,3.31236 -2.8748,0.97781 z"
       style="fill:#535d6c"
       transform="matrix(0.97066957,0,0,0.97066957,-348.17029,134.29933)" />
    <g
       transform="translate(-665.38212,89.614251)"
       id="g3882">
      <path
         style="fill:#131d3a"
         d="m 765.17728,66.641125 -7.54123,7.619496 -12.18846,-0.62278 c 0,0 13.6916,-12.516994 13.72313,-13.383096 -9.88735,-8.256725 -12.5665,-11.83046 -16.9895,-15.616904 l 6.80707,-0.3004 6.80707,-0.3004 4.78113,5.3004 c 4.73005,5.24377 4.79996,5.27876 6.54338,3.27462 17.05245,-13.832349 16.78209,-12.004951 29.13469,-19.74342 -0.75484,0.95194 -8.03303,7.36444 -13.72931,14.25 -5.69628,6.88556 -10.48136,12.412022 -10.74123,13.059942 -0.25988,0.64791 4.56732,5.785198 8.39038,10.637288 8.97291,11.38808 18.20772,24.28448 18.20772,25.42706 -14.78835,-12.82107 -17.47705,-17.702517 -33.20484,-29.601806 z"
         id="path3874"
         inkscape:connector-curvature="0" />
      <path
         inkscape:connector-curvature="0"
         style="fill:#131d3a"
         d="m 665.38212,43.754471 0,-26.61663 3.5,0 3.5,0 0,18.86043 c 0,10.37323 0.28617,20.94823 0.63592,23.5 0.63177,4.60925 0.70444,5.214273 4.5,4.63957 4.47033,-0.676874 3.98915,-1.013811 3.86408,2.5 -0.0855,2.402405 3.07009,3.457053 -5.75,2.51365 -3.1625,0.008 -6.7625,0.285 -8,0.61664 l -2.25,0.60297 z"
         id="path3872" />
      <path
         style="fill:#131d3a"
         d="m 699.25,51.0625 c -6.95091,0.240844 -14.01851,2.415781 -15.25,5.625 -2.11829,5.5202 0.7752,10.36165 7.375,12.34375 4.77631,1.43445 14.89768,0.72156 19.25,-1.34375 7.35074,-3.48815 7.22546,-11.05633 -0.25,-14.8125 -2.81557,-1.414725 -6.95445,-1.957007 -11.125,-1.8125 z m -0.0937,4.25 c 6.75269,-0.397268 11.6018,4.476125 7.25,8 -3.06985,2.48578 -11.11936,2.49245 -13.375,0 -3.34851,-3.70006 -1.43953,-6.83933 4.75,-7.84375 0.46495,-0.07545 0.92482,-0.129765 1.375,-0.15625 z"
         id="path3870"
         inkscape:connector-curvature="0" />
      <path
         style="fill:#131d3a"
         d="m 725.88212,68.692861 c -9.86265,-3.64891 -9.96508,-12.7828 -0.1849,-16.48841 4.59638,-1.74152 14.66792,-1.2573 19.50479,0.93775 5.81687,2.63979 4.66305,4.47337 -2.19982,3.49584 -11.89085,-1.69371 -16.62007,-0.67914 -16.62007,3.56554 0,4.22843 7.73363,6.24485 14.52804,3.78796 3.16192,-1.14337 8.47196,-0.52904 8.47196,0.98014 0,0.43765 -1.6875,1.60841 -3.75,2.60167 -5.0749,2.44398 -14.69601,2.98934 -19.75,1.11951 z"
         id="path3866"
         inkscape:connector-curvature="0" />
      <path
         style="fill:#131d3a"
         d="m 785.47284,70.078481 c -3.96755,-1.63695 -5.02492,-3.97593 -5.05892,-11.19064 l -0.0318,-6.75 3.3601,0 c 3.33546,0 3.36424,0.0401 3.92509,5.47429 0.77511,7.51007 1.08907,7.82526 7.28313,7.3116 7.04964,-0.58461 8.43168,-1.88086 8.43168,-7.90833 l 0,-4.87756 4,0 4,0 0,9 0,9 -3.3,0 c -1.815,0 -3.76672,-0.46672 -4.33716,-1.03716 -0.6664,-0.6664 -1.8997,-0.71082 -3.45,-0.12426 -4.0709,1.54024 -12.28061,2.15065 -14.82212,1.10206 z"
         id="path3864"
         inkscape:connector-curvature="0" />
      <path
         style="fill:#131d3a"
         d="m 827.78125,52.21875 c -3.12412,0.03307 -5.27001,0.457027 -7.375,1.40625 -9.54512,4.30424 -7.31066,14.41001 3.65625,16.5625 4.23505,0.83122 11.11908,0.29662 16.0625,-1.21875 6.37545,-1.95436 4.57813,-2.8992 -4.9375,-2.65625 -5.14453,0.13134 -9.88656,-0.1135 -10.5625,-0.53125 -2.96739,-1.83395 -0.61834,-2.65625 7.6875,-2.65625 4.90502,0 9.63002,-0.2599 10.5,-0.59375 2.45995,-0.94397 1.85703,-3.7512 -1.46875,-6.9375 -2.63985,-2.52914 -3.93316,-2.93491 -10.0625,-3.28125 -1.298,-0.07334 -2.45863,-0.104773 -3.5,-0.09375 z m 2.25,3.78125 c 2.05869,0.01167 3.99961,0.42645 5.03125,1.28125 1.45771,1.20783 1.31902,1.43483 -1.28125,2 -3.83567,0.83372 -6.3679,0.80234 -9.40625,-0.0625 l -2.5,-0.71875 2.375,-1.28125 c 1.54587,-0.84018 3.72256,-1.23042 5.78125,-1.21875 z"
         id="path3862"
         inkscape:connector-curvature="0" />
      <path
         sodipodi:nodetypes="ccc"
         style="fill:#131d3a"
         d="m 834.72251,50.832927 c -2.08386,-5.587879 7.67372,-10.379073 14.36718,-15.292116 -6.21363,6.658387 -10.52848,10.913355 -14.36718,15.292116 z"
         id="path3866-0"
         inkscape:connector-curvature="0" />
    </g>
  </g>
</svg>
